<svg xmlns="http://www.w3.org/2000/svg" width="48" height="48" fill="none" viewBox="0 0 48 48"><path stroke="#6B6B6B" stroke-linecap="round" stroke-linejoin="round" stroke-width="1.5" d="M46.5 4.5H1.5V43.5H46.5V4.5Z"/><path stroke="#6B6B6B" stroke-linecap="round" stroke-linejoin="round" stroke-width="1.5" d="M9 4.5H1.5V12H9V4.5Z"/><path fill="url(#paint0_linear)" stroke="#6B6B6B" stroke-linecap="round" stroke-linejoin="round" stroke-width="1.5" d="M9 36H1.5V43.5H9V36Z"/><path fill="url(#paint1_linear)" stroke="#6B6B6B" stroke-linecap="round" stroke-linejoin="round" stroke-width="1.5" d="M16.5 4.5H9V12H16.5V4.5Z"/><path stroke="#6B6B6B" stroke-linecap="round" stroke-linejoin="round" stroke-width="1.5" d="M16.5 36H9V43.5H16.5V36Z"/><path stroke="#6B6B6B" stroke-linecap="round" stroke-linejoin="round" stroke-width="1.5" d="M24 4.5H16.5V12H24V4.5Z"/><path fill="url(#paint2_linear)" stroke="#6B6B6B" stroke-linecap="round" stroke-linejoin="round" stroke-width="1.5" d="M24 36H16.5V43.5H24V36Z"/><path fill="url(#paint3_linear)" stroke="#6B6B6B" stroke-linecap="round" stroke-linejoin="round" stroke-width="1.5" d="M31.5 4.5H24V12H31.5V4.5Z"/><path stroke="#6B6B6B" stroke-linecap="round" stroke-linejoin="round" stroke-width="1.5" d="M31.5 36H24V43.5H31.5V36Z"/><path stroke="#6B6B6B" stroke-linecap="round" stroke-linejoin="round" stroke-width="1.5" d="M39 4.5H31.5V12H39V4.5Z"/><path fill="url(#paint4_linear)" stroke="#6B6B6B" stroke-linecap="round" stroke-linejoin="round" stroke-width="1.5" d="M39 36H31.5V43.5H39V36Z"/><path fill="url(#paint5_linear)" stroke="#6B6B6B" stroke-linecap="round" stroke-linejoin="round" stroke-width="1.5" d="M46.5 4.5H39V12H46.5V4.5Z"/><path stroke="#6B6B6B" stroke-linecap="round" stroke-linejoin="round" stroke-width="1.5" d="M46.5 36H39V43.5H46.5V36Z"/><path fill="url(#paint6_linear)" stroke="#6B6B6B" stroke-linecap="round" stroke-linejoin="round" stroke-width="1.5" d="M19.5 18L30 24L19.5 30V18Z"/><path stroke="#6B6B6B" stroke-linecap="round" stroke-linejoin="round" stroke-width="1.5" d="M46.5 36H1.5"/><defs><linearGradient id="paint0_linear" x1="5.25" x2="5.25" y1="36" y2="43.5" gradientUnits="userSpaceOnUse"><stop stop-color="#EE7C48"/><stop offset="1" stop-color="#EDAA52"/></linearGradient><linearGradient id="paint1_linear" x1="12.75" x2="12.75" y1="4.5" y2="12" gradientUnits="userSpaceOnUse"><stop stop-color="#EE7C48"/><stop offset="1" stop-color="#EDAA52"/></linearGradient><linearGradient id="paint2_linear" x1="20.25" x2="20.25" y1="36" y2="43.5" gradientUnits="userSpaceOnUse"><stop stop-color="#EE7C48"/><stop offset="1" stop-color="#EDAA52"/></linearGradient><linearGradient id="paint3_linear" x1="27.75" x2="27.75" y1="4.5" y2="12" gradientUnits="userSpaceOnUse"><stop stop-color="#EE7C48"/><stop offset="1" stop-color="#EDAA52"/></linearGradient><linearGradient id="paint4_linear" x1="35.25" x2="35.25" y1="36" y2="43.5" gradientUnits="userSpaceOnUse"><stop stop-color="#EE7C48"/><stop offset="1" stop-color="#EDAA52"/></linearGradient><linearGradient id="paint5_linear" x1="42.75" x2="42.75" y1="4.5" y2="12" gradientUnits="userSpaceOnUse"><stop stop-color="#EE7C48"/><stop offset="1" stop-color="#EDAA52"/></linearGradient><linearGradient id="paint6_linear" x1="24.75" x2="24.75" y1="18" y2="30" gradientUnits="userSpaceOnUse"><stop stop-color="#EE7C48"/><stop offset="1" stop-color="#EDAA52"/></linearGradient></defs></svg>